<?xml version="1.0" standalone="no"?>
<!DOCTYPE svg PUBLIC "-//W3C//DTD SVG 20010904//EN"
 "http://www.w3.org/TR/2001/REC-SVG-20010904/DTD/svg10.dtd">
<svg version="1.0" xmlns="http://www.w3.org/2000/svg"
 width="200.000000pt" height="200.000000pt" viewBox="0 0 200.000000 200.000000"
 preserveAspectRatio="xMidYMid meet">
<metadata>
Created by potrace 1.15, written by Peter Selinger 2001-2017
</metadata>
<g transform="translate(0.000000,200.000000) scale(0.100000,-0.100000)"
fill="#000000" stroke="none">
<path d="M1567 1839 c-77 -8 -171 -37 -266 -80 -88 -40 -269 -162 -360 -243
l-74 -66 -38 35 c-102 92 -318 232 -471 305 -72 35 -90 40 -107 30 -15 -8 -21
-20 -21 -45 0 -32 -3 -35 -28 -35 -37 0 -52 -17 -52 -58 0 -26 -3 -33 -15 -28
-36 14 -45 -3 -45 -88 -1 -127 31 -1137 36 -1173 4 -28 10 -34 47 -43 200 -49
375 -119 587 -235 l136 -74 84 30 c139 50 361 117 609 185 129 35 237 67 240
70 3 3 10 305 15 671 10 725 12 689 -46 679 -25 -5 -28 -3 -28 24 0 34 -31 70
-60 70 -16 0 -20 7 -20 30 0 27 -24 52 -47 49 -4 -1 -38 -5 -76 -10z m213
-518 c0 -153 -3 -306 -6 -340 l-7 -61 -48 0 c-27 0 -49 2 -49 5 0 3 12 28 26
56 14 28 23 53 21 55 -3 3 -29 -4 -58 -16 -30 -11 -57 -20 -60 -20 -3 0 -2 25
4 56 5 30 7 58 4 61 -9 8 -56 -30 -57 -46 0 -8 -2 -12 -5 -10 -2 3 9 94 25
203 17 109 30 207 30 217 0 26 -24 25 -160 -11 -120 -32 -236 -83 -254 -112
-7 -12 -5 -47 8 -125 10 -59 20 -121 22 -138 3 -26 3 -27 -4 -6 -14 45 -32 36
-32 -16 0 -68 -7 -75 -55 -54 -25 11 -35 20 -27 25 7 4 12 29 12 57 0 63 -19
191 -30 203 -5 5 -27 1 -52 -8 -63 -25 -34 0 82 70 224 136 478 230 628 233
l42 1 0 -279z m-1325 114 c94 -46 216 -114 272 -152 l102 -68 4 -280 5 -280
-17 272 c-18 301 -14 286 -96 343 -70 48 -239 138 -397 211 -84 39 -157 75
-163 80 -18 18 121 -43 290 -126z m1039 -62 c-2 -10 -24 -160 -49 -333 -25
-173 -48 -326 -52 -340 -4 -16 -25 79 -58 260 -28 157 -54 300 -58 317 -6 30
-3 34 26 50 32 16 162 61 184 62 6 1 9 -7 7 -16z m-569 -296 c5 -66 11 -100
20 -103 7 -3 36 6 64 20 l50 26 10 -38 c19 -64 18 -65 -49 -58 -71 8 -74 1
-29 -59 l30 -40 -51 -14 c-28 -7 -53 -12 -55 -9 -8 7 -23 411 -17 423 9 15 20
-43 27 -148z m843 -633 l-3 -67 -125 -33 c-69 -18 -126 -31 -129 -29 -2 2 0
29 3 59 l7 55 45 -20 c71 -30 75 -28 58 34 -7 28 -14 54 -14 57 0 3 30 3 66 2
72 -4 72 -5 28 55 -13 17 -24 36 -24 41 0 5 19 13 43 18 l42 9 3 -57 c2 -31 2
-87 0 -124z m-768 6 c-17 -33 -26 -60 -22 -60 5 0 35 9 66 20 l58 20 -5 -23
c-4 -12 -9 -42 -13 -67 l-7 -44 51 37 c61 43 72 45 72 13 0 -34 11 -86 19 -86
3 0 21 21 40 45 18 25 37 45 42 45 9 0 53 -80 47 -85 -2 -1 -65 -21 -140 -44
-75 -23 -168 -52 -206 -65 l-69 -24 -7 180 c-3 98 -4 183 -1 189 4 5 28 9 56
9 l49 0 -30 -60z"/>
</g>
</svg>
